<?xml version="1.0" encoding="utf-8"?>
<!-- Generator: Adobe Illustrator 19.0.0, SVG Export Plug-In . SVG Version: 6.00 Build 0)  -->
<svg version="1.1" id="Logo" xmlns="http://www.w3.org/2000/svg" xmlns:xlink="http://www.w3.org/1999/xlink" x="0px" y="0px"
	 viewBox="0 0 249 249" style="enable-background:new 0 0 249 249;" xml:space="preserve">
<style type="text/css">
	.st0{fill:#F9F6FB;stroke:#F9F6FB;stroke-miterlimit:10;}
	.st1{fill:none;stroke:#F9F6FB;stroke-miterlimit:10;}
</style>
<path id="Pajaro_2" class="st0" d="M124.6,133.6c-0.4,13-3.2,35.4-17.8,35.5c-20.6,0.2-27-24.8-56.7-24.1
	c-25.1,0.6-38.3,17.5-41.8,22.8c-4.9-13.2-7.6-27.4-7.7-42.3c-0.1-13.6,2-26.7,6-39c3.2-2.9,14.6-10.9,37-3.6
	c26.8,8.8,47.4,65.5,63.9,65.4c16.4-0.1,17.2-23.8,17.2-23.8l0,0L124.6,133.6z"/>
<path id="Pajaro_1" class="st0" d="M124.5,124.5L124.5,124.5c0,0,0.8-23.6,17.2-23.8s37.1,56.6,63.9,65.4c22.4,7.3,33.8-0.7,37-3.6
	c4-12.3,6.1-25.4,6-39c-0.1-14.9-2.8-29.1-7.7-42.3c-3.5,5.3-16.7,22.1-41.8,22.8c-29.7,0.7-36.1-24.3-56.7-24.1
	c-14.6,0.1-17.4,22.5-17.8,35.5L124.5,124.5z"/>
<circle id="Circulo_1_" class="st1" cx="124.5" cy="124.5" r="124"/>
<g id="XMLID_14_">
</g>
<g id="XMLID_15_">
</g>
<g id="XMLID_16_">
</g>
<g id="XMLID_17_">
</g>
<g id="XMLID_18_">
</g>
<g id="XMLID_19_">
</g>
</svg>
