<?xml version="1.0" standalone="no"?>
<!DOCTYPE svg PUBLIC "-//W3C//DTD SVG 20010904//EN"
 "http://www.w3.org/TR/2001/REC-SVG-20010904/DTD/svg10.dtd">
<svg version="1.0" xmlns="http://www.w3.org/2000/svg"
 width="700.000000pt" height="700.000000pt" viewBox="0 0 700.000000 700.000000"
 preserveAspectRatio="xMidYMid meet">
<metadata>
Created by potrace 1.14, written by Peter Selinger 2001-2017
</metadata>
<g transform="translate(0.000000,700.000000) scale(0.100000,-0.100000)"
fill="#000000" stroke="none">
<path d="M3299 6996 c-2 -2 -47 -6 -99 -10 -52 -3 -104 -8 -115 -10 -11 -2
-46 -7 -79 -11 -101 -12 -215 -35 -380 -76 -150 -38 -320 -94 -451 -150 -16
-7 -32 -13 -35 -14 -71 -24 -307 -145 -442 -226 -308 -186 -569 -402 -813
-674 -219 -244 -444 -589 -570 -875 -26 -58 -51 -114 -56 -125 -41 -90 -126
-354 -168 -525 -18 -76 -59 -302 -66 -365 -19 -185 -22 -259 -22 -440 0 -304
28 -547 98 -833 29 -122 106 -369 133 -427 7 -16 31 -70 52 -120 78 -186 173
-360 312 -569 245 -369 600 -722 967 -961 220 -143 347 -211 565 -305 172 -73
441 -161 603 -196 56 -12 287 -52 332 -58 265 -32 740 -27 925 9 14 3 43 7 65
10 22 2 51 7 65 10 14 2 39 7 55 10 367 69 791 232 1125 433 156 94 408 278
515 377 94 86 239 231 295 294 36 41 70 79 76 85 65 68 263 353 352 508 47 80
182 351 182 364 0 3 8 24 19 47 54 120 125 338 166 510 30 123 41 183 69 367
31 202 29 716 -3 935 -58 387 -151 688 -320 1039 -248 512 -637 978 -1088
1301 -65 46 -129 93 -143 103 -89 67 -362 212 -545 290 -265 112 -590 207
-815 237 -14 2 -38 6 -55 9 -16 2 -59 7 -95 11 -36 4 -78 9 -95 12 -35 5 -511
14 -516 9z m336 -30 c94 -3 184 -7 200 -10 17 -2 57 -7 90 -10 116 -13 342
-57 470 -92 72 -20 137 -37 145 -39 71 -15 413 -156 540 -223 162 -85 226
-123 361 -214 482 -325 893 -788 1149 -1296 72 -144 110 -228 140 -309 l23
-63 -43 -54 c-213 -277 -561 -490 -880 -541 -19 -3 -60 -9 -90 -14 -84 -13
-287 -10 -381 6 -101 17 -268 72 -346 115 -95 51 -212 131 -365 250 -238 185
-348 247 -499 281 -63 14 -185 16 -238 3 -98 -23 -204 -119 -268 -242 -36 -69
-85 -208 -98 -276 -3 -13 -9 -45 -15 -73 -5 -27 -12 -70 -15 -95 -3 -25 -8
-61 -10 -80 -11 -83 -15 -187 -16 -355 -1 -217 -10 -293 -50 -415 -76 -235
-210 -361 -396 -373 -72 -5 -145 26 -233 98 -115 94 -227 233 -465 575 -433
623 -610 837 -832 1005 -161 123 -370 204 -598 232 -78 9 -254 9 -329 -1 -110
-14 -252 -66 -343 -126 l-32 -21 8 28 c35 121 159 395 256 568 47 83 171 279
195 308 5 7 35 46 67 87 323 429 760 786 1255 1028 59 29 111 52 117 52 5 0
22 7 38 15 110 58 471 173 627 201 17 3 49 9 71 14 109 23 291 45 470 56 61 3
111 8 113 9 2 2 11 1 20 -1 9 -1 94 -5 187 -8z m449 -2836 c124 -54 287 -234
531 -585 411 -591 520 -732 709 -921 92 -91 242 -214 263 -214 6 0 13 -4 15
-8 8 -19 164 -83 269 -111 156 -42 281 -59 413 -56 178 4 314 38 439 111 32
19 60 34 62 34 2 0 -5 -21 -15 -46 -11 -25 -20 -50 -20 -56 0 -5 -6 -24 -14
-41 -8 -18 -27 -61 -42 -97 -50 -122 -160 -335 -241 -465 -294 -472 -672 -847
-1163 -1150 -410 -254 -978 -441 -1460 -481 -41 -3 -91 -8 -110 -10 -47 -5
-382 -4 -445 1 -174 15 -222 21 -350 40 -163 25 -466 108 -660 180 -139 51
-438 198 -570 280 -413 255 -743 563 -1025 955 -157 219 -359 595 -411 764
-12 39 26 92 166 231 204 205 456 343 715 394 30 6 69 13 85 17 52 10 328 14
375 5 25 -5 61 -11 80 -14 208 -31 431 -154 745 -412 55 -46 190 -133 250
-163 107 -53 199 -76 310 -76 92 0 105 2 165 31 104 50 166 119 230 255 38 82
91 263 105 363 23 161 25 198 30 437 2 124 6 248 10 276 14 123 72 286 133
377 103 151 285 217 426 155z"/>
</g>
</svg>
